<?xml version="1.0" encoding="utf-8"?>
<!-- Svg Vector Icons : http://www.onlinewebfonts.com/icon -->
<!DOCTYPE svg PUBLIC "-//W3C//DTD SVG 1.1//EN" "http://www.w3.org/Graphics/SVG/1.1/DTD/svg11.dtd">
<svg version="1.1" xmlns="http://www.w3.org/2000/svg" xmlns:xlink="http://www.w3.org/1999/xlink" x="0px" y="0px" viewBox="0 0 256 256" enable-background="new 0 0 256 256" xml:space="preserve">
<metadata> Svg Vector Icons : http://www.onlinewebfonts.com/icon </metadata>
<g><g><path fill="#000000" d="M45.9,123.3c0,3.4,2.8,6.2,6.2,6.2c3.4,0,6.2-2.8,6.2-6.2l0,0c0-3.4-2.8-6.2-6.2-6.2C48.7,117.1,45.9,119.8,45.9,123.3z"/><path fill="#000000" d="M170.6,122.4c0,3.4,2.8,6.2,6.2,6.2c3.4,0,6.2-2.8,6.2-6.2l0,0c0-3.4-2.8-6.2-6.2-6.2C173.4,116.2,170.6,119,170.6,122.4z"/><path fill="#000000" d="M245.2,108.9c-0.5-3.4-3.6-5.7-7-5.2c-3.4,0.5-5.7,3.6-5.2,7c2.3,15.5-1.6,30.9-10.9,43.5c-9.3,12.6-23,20.8-38.5,23.1c-32,4.6-61.8-17.4-66.6-49.4c-2.8-19,3.9-38.3,18-51.4c2.5-2.3,2.6-6.2,0.3-8.7c-2.3-2.5-6.2-2.6-8.7-0.3c-2.7,2.5-5.1,5.3-7.3,8.2c-2.1-3.3-4-5.5-4.4-6c-2.2-2.6-6.1-2.8-8.7-0.6c-2.6,2.2-2.8,6.1-0.6,8.7c1.3,1.5,4.4,5.8,6,9.9c-6.4,12.8-8.8,27.5-6.7,42c1.6,11,5.9,20.9,11.8,29.5c-12.8,14.5-32.1,21.1-51.3,17.2c-14.1-2.9-26.2-11.2-34.1-23.2c-7.9-12.1-10.6-26.4-7.7-40.5c1.8-8.5,5.6-16.6,11.1-23.3c2.2-2.6,1.8-6.5-0.8-8.7c-2.6-2.2-6.5-1.8-8.7,0.8c-6.8,8.2-11.5,18.1-13.7,28.7c-3.6,17.3-0.2,35,9.5,49.8c9.7,14.8,24.6,24.9,41.9,28.5c4.6,0.9,9.1,1.4,13.6,1.4c18.2,0,35.5-7.5,48.1-21c13.1,13.2,30.9,21.4,50.3,21.4c3.4,0,6.9-0.3,10.5-0.8c18.8-2.8,35.3-12.7,46.6-27.9C243.3,146.4,248,127.6,245.2,108.9z"/></g></g>
</svg>